<?xml version="1.0" encoding="UTF-8" standalone="no"?>
<!-- Created with Inkscape (http://www.inkscape.org/) -->

<svg
   width="150mm"
   height="150mm"
   viewBox="0 0 150 150"
   version="1.1"
   id="svg1"
   inkscape:version="1.4 (e7c3feb100, 2024-10-09)"
   sodipodi:docname="ReverseControlsPowerUp.svg"
   xml:space="preserve"
   inkscape:export-filename="ReverseControlsPowerUp.png"
   inkscape:export-xdpi="96"
   inkscape:export-ydpi="96"
   xmlns:inkscape="http://www.inkscape.org/namespaces/inkscape"
   xmlns:sodipodi="http://sodipodi.sourceforge.net/DTD/sodipodi-0.dtd"
   xmlns:xlink="http://www.w3.org/1999/xlink"
   xmlns="http://www.w3.org/2000/svg"
   xmlns:svg="http://www.w3.org/2000/svg"><sodipodi:namedview
     id="namedview1"
     pagecolor="#000000"
     bordercolor="#ffffff"
     borderopacity="1"
     inkscape:showpageshadow="0"
     inkscape:pageopacity="0"
     inkscape:pagecheckerboard="0"
     inkscape:deskcolor="#3d3d3d"
     inkscape:document-units="mm"
     inkscape:zoom="1.4485269"
     inkscape:cx="179.4927"
     inkscape:cy="307.20865"
     inkscape:window-width="2048"
     inkscape:window-height="1211"
     inkscape:window-x="0"
     inkscape:window-y="0"
     inkscape:window-maximized="1"
     inkscape:current-layer="layer1" /><defs
     id="defs1"><linearGradient
       id="linearGradient37"
       inkscape:collect="always"><stop
         style="stop-color:#383b02;stop-opacity:0;"
         offset="0.80000001"
         id="stop38" /><stop
         style="stop-color:#f7ec40;stop-opacity:0;"
         offset="1"
         id="stop37" /></linearGradient><clipPath
       clipPathUnits="userSpaceOnUse"
       id="clipPath16"><circle
         style="fill:#808080;fill-opacity:1;stroke-width:0.264583"
         id="circle17"
         cx="74.394936"
         cy="77.753044"
         r="20" /></clipPath><clipPath
       clipPathUnits="userSpaceOnUse"
       id="clipPath17"><circle
         style="fill:#808080;fill-opacity:1;stroke-width:0.264583"
         id="circle18"
         cx="74.394936"
         cy="77.753044"
         r="20" /></clipPath><clipPath
       clipPathUnits="userSpaceOnUse"
       id="clipPath18"><circle
         style="fill:#808080;fill-opacity:1;stroke-width:0.264583"
         id="circle19"
         cx="74.394936"
         cy="77.753044"
         r="20" /></clipPath><clipPath
       clipPathUnits="userSpaceOnUse"
       id="clipPath19"><circle
         style="fill:#808080;fill-opacity:1;stroke-width:0.264583"
         id="circle20"
         cx="74.394936"
         cy="77.753044"
         r="20" /></clipPath><clipPath
       clipPathUnits="userSpaceOnUse"
       id="clipPath20"><circle
         style="fill:#808080;fill-opacity:1;stroke-width:0.264583"
         id="circle21"
         cx="74.394936"
         cy="77.753044"
         r="20" /></clipPath><clipPath
       clipPathUnits="userSpaceOnUse"
       id="clipPath21"><circle
         style="fill:#808080;fill-opacity:1;stroke-width:0.264583"
         id="circle22"
         cx="74.394936"
         cy="77.753044"
         r="20" /></clipPath><clipPath
       clipPathUnits="userSpaceOnUse"
       id="clipPath22"><circle
         style="fill:#808080;fill-opacity:1;stroke-width:0.264583"
         id="circle23"
         cx="74.394936"
         cy="77.753044"
         r="20" /></clipPath><clipPath
       clipPathUnits="userSpaceOnUse"
       id="clipPath23"><circle
         style="fill:#808080;fill-opacity:1;stroke-width:0.264583"
         id="circle24"
         cx="74.394936"
         cy="77.753044"
         r="20" /></clipPath><clipPath
       clipPathUnits="userSpaceOnUse"
       id="clipPath24"><circle
         style="fill:#808080;fill-opacity:1;stroke-width:0.264583"
         id="circle25"
         cx="74.394936"
         cy="77.753044"
         r="20" /></clipPath><clipPath
       clipPathUnits="userSpaceOnUse"
       id="clipPath25"><circle
         style="fill:#808080;fill-opacity:1;stroke-width:0.264583"
         id="circle26"
         cx="74.394936"
         cy="77.753044"
         r="20" /></clipPath><radialGradient
       inkscape:collect="always"
       xlink:href="#linearGradient37"
       id="radialGradient38"
       cx="75"
       cy="75"
       fx="75"
       fy="75"
       r="70"
       gradientUnits="userSpaceOnUse"
       spreadMethod="pad" /></defs><g
     inkscape:label="Layer 1"
     inkscape:groupmode="layer"
     id="layer1"><circle
       id="path2"
       style="fill:#ffffff;stroke:#000000;stroke-width:0.264583"
       cx="65.353889"
       cy="56.05452"
       r="0.034407407"
       clip-path="url(#clipPath25)" /><path
       style="fill:#ffffff;stroke-width:0.264583"
       id="path3"
       d="m 67.489672,57.474852 c 1.298499,-0.02997 2.597508,-0.02209 3.896241,-0.0191 0.537234,0.0021 1.074457,0.0063 1.611681,0.01016 0,0 -3.174178,-2.306174 -3.174178,-2.306174 v 0 c -0.527888,0.0039 -1.05578,0.008 -1.583679,0.01016 -1.316268,0.003 -2.632781,0.01032 -3.948824,-0.0191 z"
       clip-path="url(#clipPath24)" /><circle
       style="fill:none;stroke-width:0.264583"
       id="path4"
       cx="75"
       cy="75"
       r="65"
       clip-path="url(#clipPath23)" /><circle
       style="opacity:1;fill:url(#radialGradient38);fill-opacity:1;stroke:#853d2f;stroke-width:6;stroke-dasharray:0.6, 0.6;stroke-dashoffset:2.1;stroke-opacity:1"
       id="path1"
       cx="75"
       cy="75"
       r="70"
       transform="translate(6.9155916e-5,-3.964305e-4)" /><g
       id="g38"
       transform="translate(6.9155917e-5,-3.9642954e-4)"><path
         id="path6"
         style="fill:#f9f9f9;stroke-width:0.849336"
         d="m 111.07325,21.015651 c -6.28431,0.02157 -12.568279,0.04303 -18.852592,0.0646 -5.729686,0.04831 -11.463377,-0.04594 -17.190165,0.164848 -0.978947,0.101833 -2.101567,0.01945 -2.986898,0.611332 -2.146748,2.010081 -4.375976,3.962988 -6.240446,6.247164 -0.519563,0.997671 0.326431,2.006902 0.84491,2.816882 1.399709,2.046459 3.115419,3.902032 4.470528,6.002218 0.34544,0.480444 0.405313,1.18473 -0.120406,1.564245 -1.439756,1.33572 -3.087876,2.346216 -4.579565,3.619934 -3.503389,2.867538 -6.994188,5.765786 -10.235034,8.930721 -2.165755,2.224207 -4.102839,4.629722 -5.418274,7.447608 -1.61582,3.299564 -3.034709,6.918627 -2.817916,10.624157 0.007,0.146351 0.02624,0.296455 0.03824,0.444418 0.02761,-0.175193 0.05328,-0.350802 0.07441,-0.5271 0.03837,-0.661225 0.199339,-1.301738 0.380856,-1.935799 0.212535,-0.675668 0.444681,-1.3459 0.710551,-2.002462 0.258899,-0.582983 0.517303,-1.164684 0.825789,-1.723409 0.256949,-0.483519 0.646083,-0.883504 0.930176,-1.347721 0.436926,-0.644905 0.954629,-1.223418 1.522388,-1.753898 -0.03881,0.03395 -0.147732,0.142652 -0.116272,0.101802 0.326206,-0.423591 0.98504,-0.873934 1.4149,-1.163236 0.14233,-0.108654 0.29889,-0.193385 0.450102,-0.287321 0.02183,-0.332299 0.06224,-0.663262 0.114722,-0.992704 0.06392,-0.364946 0.298639,-1.32565 0.542602,-1.553394 0.619899,-0.578687 1.309104,-1.077834 1.963705,-1.616956 0.426729,-0.163841 0.867197,-0.214898 1.313098,-0.226859 0.0757,-0.01757 0.151879,-0.03327 0.227893,-0.04961 0.183453,-0.328199 0.348753,-0.668263 0.545186,-0.98702 1.500226,-2.476585 3.517777,-4.585716 5.732467,-6.433716 5.198258,-4.44358 10.769969,-8.428112 15.944246,-12.900505 0.529175,-0.273911 -0.1366,-0.71127 -0.282153,-1.049031 -2.088915,-2.953596 -4.5628,-5.644401 -6.575826,-8.673889 -0.302956,-0.630623 0.491054,-0.96836 1.005107,-0.954981 3.556982,-0.246086 7.128433,-0.216575 10.69237,-0.289388 6.33736,-0.0757 12.674938,-0.109683 19.012797,-0.105937 1.78858,0.05496 3.60424,-0.08496 5.37331,0.211874 0.7612,0.204094 0.46341,1.129623 0.43305,1.698604 -0.65152,4.79499 -1.56489,9.551516 -2.32079,14.331425 -0.48359,2.672609 -0.80615,5.304403 -1.23455,7.982459 -0.50663,2.298776 -0.74295,4.647717 -1.20251,6.957198 -0.31468,1.602443 -0.36173,3.285777 -0.96842,4.814693 -0.21977,0.657997 -1.09915,0.728686 -1.47846,0.175183 -2.51744,-3.133202 -5.1789,-6.152088 -7.863084,-9.143628 -0.320876,-0.516976 -0.714485,0.106667 -1.042314,0.302824 -1.279297,1.058697 -2.538037,2.141924 -3.802868,3.217891 0.203602,0.01738 0.407185,0.03804 0.610815,0.05168 0.169378,0.05431 0.338656,0.108303 0.507979,0.162781 0.916685,0.200151 0.944818,0.25753 1.955953,0.902787 0.414824,0.400901 0.524955,0.489933 1.034046,1.133264 -0.0053,-0.0087 -0.0219,-0.03425 -0.0155,-0.02635 0.162284,0.19951 0.184373,0.233082 0.325561,0.422196 0.498961,0.668335 0.861527,1.318098 1.110527,1.937867 0.06973,0.04736 0.121372,0.08602 0.301273,0.221175 0.491349,0.389372 0.885783,0.863885 1.217497,1.386995 0.07643,0.08633 0.152352,0.17029 0.186035,0.20929 0.03031,0.03546 0.06069,0.07096 0.09095,0.106453 0.01283,0.0091 -0.0036,-0.0086 0.04961,0.03669 0.488327,0.469064 0.973465,0.94086 1.444357,1.42782 0.55342,0.561652 1.088376,1.138393 1.575616,1.758549 0.0677,0.09406 0.13529,0.188094 0.20309,0.282154 0.20694,0.287261 0.38195,0.569679 0.54157,0.849043 0.17259,-0.163049 0.34107,-0.333269 0.51831,-0.489375 1.59917,-1.535509 3.17314,-3.096917 4.75785,-4.647262 1.72948,-11.059008 3.55915,-22.102886 5.26428,-33.165417 0.13545,-1.270615 0.45626,-2.570634 0.22014,-3.843693 -0.24003,-0.539588 -0.77844,-0.871673 -1.13482,-1.330152 z M 91.160775,53.785744 c 0.06905,0.01465 0.120868,0.02612 0.181901,0.03927 -0.01367,-0.0038 -0.02443,-0.0076 -0.03876,-0.01137 -0.0012,-0.0049 -0.179323,-0.0356 -0.143143,-0.0279 z m -5.190898,3.525883 c -0.475462,0.406739 -0.950443,0.814046 -1.42782,1.21853 0.119784,-0.06217 0.293377,-0.147668 0.463021,-0.241329 0.443828,-0.210942 0.592273,-0.301546 0.936894,-0.471806 -3.16e-4,-0.169336 0.0048,-0.338074 0.0279,-0.505395 z m 11.559501,2.78536 c 0.0022,0.0047 0.0054,0.01362 0.0093,0.02222 0.0067,0.01181 0.01453,0.02277 0.02119,0.03462 -0.03239,-0.06109 -0.03568,-0.06798 -0.03049,-0.05684 z M 56.296753,75.167385 c -0.01306,-0.0013 -0.0118,0.0072 0.0047,0.02274 0.0032,-0.01315 0.01291,-0.01331 0.04031,0.02377 0.08021,0.0016 -0.01071,-0.04319 -0.04496,-0.04651 z m -12.779065,2.518192 c -0.448135,0.02817 -0.903256,0.110259 -1.336869,0.116272 -2.006043,2.112727 -4.212367,4.0584 -5.967078,6.394442 -0.595619,0.88835 -0.590738,2.019042 -0.856278,3.029272 -1.720854,9.117859 -3.206027,18.293357 -4.625041,27.463437 -0.289946,2.10403 -0.67281,4.20306 -0.815454,6.32261 0.285716,1.01551 1.079475,1.95194 2.089278,2.28927 3.338737,0.22607 6.692398,0.0397 10.036597,0.0305 8.914552,-0.15098 17.832863,-0.13994 26.745137,-0.39636 1.070554,-0.11367 1.763446,-1.0876 2.539897,-1.73271 1.456814,-1.42497 2.989531,-2.77132 4.460193,-4.17907 0.674949,-0.64832 1.112197,-1.7542 0.467155,-2.57659 -1.721825,-2.73266 -3.917917,-5.12175 -5.810498,-7.72769 -0.307108,-0.72613 0.559204,-1.23819 1.033011,-1.6459 2.620892,-1.94797 5.09699,-4.12178 7.732862,-6.084897 3.27273,-2.573846 6.45377,-5.306498 9.199438,-8.446513 0.381904,-0.48861 0.741491,-0.991295 1.091923,-1.499133 v -0.14056 c -0.312306,-0.430345 -0.601638,-0.876336 -0.834057,-1.354956 -0.10491,-0.233392 -0.18266,-0.476136 -0.245463,-0.722954 -0.217216,0.323292 -0.428007,0.652273 -0.657841,0.963766 -2.876353,3.887209 -6.888587,6.670615 -10.619507,9.661942 -3.048837,2.449463 -6.200757,4.774155 -9.188587,7.298775 -0.326344,0.29202 -0.658906,0.58644 -0.919323,0.94 2.17839,3.25213 4.883479,6.12286 7.02386,9.40098 0.370119,0.50004 -0.135767,1.09464 -0.685229,1.08003 -3.062615,0.23417 -6.142178,0.0961 -9.211841,0.14366 -7.809148,-0.004 -15.617784,0.10555 -23.425444,0.2372 -0.976443,-0.0678 -2.137263,0.13112 -2.936771,-0.55346 -0.60334,-0.73882 -0.04917,-1.77078 -0.0067,-2.56263 1.315453,-8.5011 2.85456,-16.970998 4.135148,-25.467697 0.441042,-2.262828 0.70058,-4.558842 1.173055,-6.814054 0.121484,-0.528075 0.385862,-1.368967 1.069702,-1.224732 0.98267,0.712362 1.704714,1.728651 2.513542,2.630331 0.01448,-0.459697 0.07688,-0.915558 0.169499,-1.369942 0.08676,-0.324017 0.185699,-0.644893 0.290421,-0.963766 -0.756875,-0.798012 -1.526773,-1.582931 -2.332674,-2.33164 -0.406762,-0.209656 -0.84791,-0.235396 -1.296045,-0.207223 z m 17.344678,4.125846 c -0.09975,0.05011 -0.200352,0.09903 -0.300757,0.147795 -0.02108,0.16348 -0.04012,0.327179 -0.06304,0.490409 0.120946,-0.212933 0.242659,-0.425398 0.363802,-0.638204 z" /><path
         id="path5"
         style="fill:#ffffff;stroke-width:0.419925"
         d="m 73.965959,52.970807 c -0.0048,0.01502 -0.0073,0.03344 -0.01189,0.04857 0.02664,-0.0115 0.05359,-0.02235 0.0801,-0.03411 -0.02193,-0.0055 -0.04645,-0.0088 -0.06821,-0.01447 z M 58.918815,53.11395 c -4.025475,0 -4.273256,0.01195 -4.521171,0.21239 -0.250805,0.202782 -0.26469,0.289128 -0.31781,1.970423 l -0.05581,1.758032 -0.919323,0.501778 c -1.296319,0.707522 -2.100702,1.327292 -3.188953,2.456181 -1.479876,1.535137 -2.475612,3.205072 -3.107821,5.212085 -0.621249,1.972206 -0.625455,2.075464 -0.591695,14.807882 l 0.03101,11.690242 0.259933,0.722437 c 0.901792,2.508559 3.091652,4.28609 5.794995,4.704105 2.074846,0.320829 4.686471,-0.805591 6.045626,-2.607592 0.704437,-0.933961 1.033029,-1.775496 2.402954,-6.15208 0.745971,-2.383198 1.373146,-4.351293 1.393196,-4.373893 0.02005,-0.02266 0.351145,0.242359 0.735873,0.589111 0.822378,0.741202 2.342452,1.526025 3.47679,1.79524 1.125845,0.267197 3.181381,0.23991 4.333069,-0.05788 1.194726,-0.308908 2.377618,-0.906356 3.235978,-1.634526 l 0.708484,-0.600996 0.708484,0.600996 c 0.85836,0.72817 2.040734,1.325618 3.235461,1.634526 1.149421,0.29723 3.206479,0.325046 4.333586,0.05891 1.107694,-0.261554 2.648088,-1.059469 3.47679,-1.800924 0.384728,-0.34423 0.714699,-0.60714 0.733289,-0.58446 0.01859,0.02266 0.620693,1.965948 1.337903,4.318599 0.795203,2.60848 1.477056,4.633132 1.747697,5.188831 0.715568,1.469244 2.110157,2.704197 3.67316,3.253548 2.238367,0.786721 4.369496,0.439044 6.481255,-1.057816 1.05913,-0.750734 1.90964,-1.911476 2.39934,-3.273702 l 0.25993,-0.722437 0.031,-11.690242 c 0.0337,-12.732422 0.0295,-12.835676 -0.5917,-14.807882 -0.6322,-2.007013 -1.62794,-3.676948 -3.107817,-5.212085 -1.088252,-1.128888 -1.892636,-1.748659 -3.188953,-2.456181 l -0.919324,-0.501778 -0.05581,-1.758032 c -0.05311,-1.681295 -0.067,-1.767641 -0.31781,-1.970423 -0.24791,-0.20044 -0.495695,-0.21239 -4.521171,-0.21239 h -4.232817 c -0.01075,0.0014 -0.02128,0.0033 -0.03204,0.0047 l -0.305925,0.26355 -0.311609,0.267684 -0.03617,1.671732 -0.03566,1.671733 -1.463993,0.771529 c -2.826433,1.489264 -4.482023,1.968868 -7.4967,2.171444 l -0.810287,0.05426 0.0016,-0.164331 c -0.184645,0.124668 -0.412716,0.211169 -0.658358,0.243396 -0.107182,0.01128 -0.214831,0.015 -0.322461,0.0186 -0.443921,0.01488 -0.779895,-0.08606 -1.010791,-0.245463 V 59.9895 L 72.82856,59.935756 C 69.820346,59.733914 68.162044,59.253347 65.337028,57.764829 L 63.873035,56.9933 63.836861,55.321567 63.801204,53.649835 63.489596,53.382151 63.177987,53.11395 Z m 2.938322,1.885157 v 0.682645 0.682129 l -0.361218,-0.07235 c -1.145349,-0.230219 -2.56578,-0.300629 -3.657141,-0.181384 -0.631579,0.06901 -1.313282,0.154006 -1.515153,0.189136 l -0.366903,0.06408 0.03359,-0.652673 0.03359,-0.652157 2.916618,-0.02945 z m 25.553996,0 2.916618,0.02997 2.916618,0.02945 0.03359,0.652157 0.03359,0.652673 -0.366903,-0.06408 c -1.341075,-0.233395 -2.734311,-0.306842 -3.737239,-0.197404 -0.590574,0.06444 -1.236454,0.149732 -1.435055,0.189652 l -0.361218,0.07235 v -0.682129 z m -13.775387,2.857706 v 0.04548 c 0.03066,-6e-5 0.06132,1.4e-5 0.09198,0 -0.03167,-0.01376 -0.06144,-0.03016 -0.09198,-0.04548 z m -14.599109,0.152446 c 1.145489,0.0067 2.305798,0.202369 3.452503,0.593245 0.416186,0.141866 1.481751,0.637452 2.367814,1.101225 1.744181,0.912921 3.278788,1.475406 5.110799,1.872754 1.075437,0.233247 1.440069,0.252698 4.666382,0.252698 3.226313,0 3.590944,-0.01944 4.666382,-0.252698 1.823693,-0.395544 3.362197,-0.957806 5.110799,-1.868103 2.627486,-1.367831 4.286762,-1.795919 6.487976,-1.673283 3.014877,0.167967 5.741601,1.591196 7.695654,4.016809 0.858976,1.066264 1.807924,2.938519 2.171444,4.283976 l 0.25528,0.944129 v 12.166182 12.165666 l -0.30851,0.658874 c -0.62429,1.333073 -1.73172,2.288231 -3.167245,2.731617 -2.202215,0.680195 -4.595257,-0.335615 -5.673556,-2.408122 -0.06863,-0.131918 -0.778006,-2.356174 -1.576131,-4.942851 -0.798129,-2.586685 -1.536165,-4.848434 -1.64021,-5.02605 -0.269247,-0.459663 -0.693095,-0.741633 -1.22008,-0.812353 -0.717989,-0.0963 -0.991932,0.03314 -1.898076,0.895552 -1.429698,1.360712 -2.475073,1.828857 -4.292761,1.923397 -1.334056,0.06938 -2.373746,-0.121805 -3.471106,-0.638721 -0.583619,-0.274915 -0.969606,-0.579247 -1.731677,-1.364774 -0.900842,-0.92856 -1.015713,-1.010791 -1.408183,-1.010791 -0.39247,0 -0.507341,0.08223 -1.408183,1.010791 -1.095842,1.129571 -1.894305,1.593664 -3.23081,1.876888 -2.325116,0.492725 -4.465169,-0.08977 -6.124691,-1.667082 -0.998827,-0.949358 -1.184231,-1.05885 -1.789555,-1.05885 -0.809907,0 -1.392104,0.454933 -1.706356,1.333252 -0.09839,0.274982 -0.755975,2.349586 -1.461409,4.610571 -0.705433,2.260984 -1.431891,4.41801 -1.614372,4.792989 -0.569233,1.169697 -1.655609,2.113552 -2.860291,2.485637 -0.93877,0.289941 -1.893538,0.279434 -2.805513,-0.03152 -1.452992,-0.495425 -2.429096,-1.338419 -3.037541,-2.622579 L 48.246598,91.611859 V 79.446193 67.280011 l 0.255282,-0.944129 c 0.553032,-2.046848 2.023843,-4.44431 3.485058,-5.680273 2.080366,-1.759666 4.529625,-2.661157 7.049699,-2.64635 z m 15.490528,1.718758 c 0.001,9.88e-4 0.0021,0.0016 0.0031,0.0026 0.03836,-0.0018 0.03113,-0.0024 -0.0031,-0.0026 z m -16.980359,1.615922 c -1.329532,0.01043 -1.585891,0.100193 -1.86862,0.382922 -0.255349,0.255405 -0.2651,0.32603 -0.2651,1.881539 v 1.616439 h -1.492932 c -0.820977,0 -1.618167,0.04746 -1.771985,0.105937 -0.565994,0.215189 -0.623735,0.533259 -0.623735,3.438549 0,1.830957 0.04168,2.757945 0.132809,2.957959 0.231869,0.508905 0.598601,0.608232 2.250508,0.608232 h 1.505335 v 1.58595 c 0,1.769532 0.07214,1.995723 0.699182,2.183329 0.195862,0.0586 1.567807,0.09647 3.048393,0.08475 l 2.691825,-0.02119 0.307992,-0.307991 c 0.303612,-0.303656 0.308215,-0.329832 0.345715,-1.908411 l 0.03772,-1.600419 1.592151,-0.03617 c 1.507677,-0.0339 1.607777,-0.04983 1.878955,-0.304891 l 0.286287,-0.269234 -0.0036,-2.952791 c -0.0026,-2.145771 -0.04065,-3.000898 -0.13901,-3.129008 -0.280936,-0.365911 -0.616787,-0.434599 -2.119767,-0.434599 h -1.498617 l -0.03617,-1.609204 c -0.03552,-1.588789 -0.03963,-1.612244 -0.343648,-1.916162 l -0.307992,-0.307992 -2.57762,-0.03566 c -0.722504,-0.01 -1.284883,-0.01536 -1.72806,-0.01188 z m 32.925639,0.08062 c -1.116253,-0.07086 -2.175445,0.530232 -2.688725,1.632459 -0.700779,1.50486 0.149739,3.356025 1.754415,3.817854 1.249637,0.359649 2.515388,-0.17088 3.258199,-1.365808 0.255304,-0.410698 0.356613,-1.664165 0.178284,-2.204516 -0.226667,-0.686808 -0.726785,-1.256716 -1.384929,-1.578715 -0.366546,-0.179335 -0.74516,-0.277655 -1.117244,-0.301274 z M 57.30186,63.336065 h 1.610754 1.611271 v 1.252637 1.253154 l -0.752926,0.746724 c -0.414009,0.410837 -0.777669,0.747241 -0.808219,0.747241 -0.03055,0 -0.416843,-0.36375 -0.858345,-0.808219 l -0.802535,-0.80822 v -1.191658 z m 33.084285,0.01189 c 0.185076,0.0071 0.363042,0.09381 0.529683,0.260449 0.333283,0.333281 0.348363,0.712885 0.04289,1.101225 -0.288539,0.366821 -0.883564,0.401627 -1.214396,0.0708 -0.330829,-0.330833 -0.296025,-0.925859 0.0708,-1.214397 0.19417,-0.152733 0.385949,-0.225207 0.571025,-0.218074 z m 4.524788,2.654618 c -1.075175,0 -1.925221,0.510373 -2.448946,1.471228 -0.80012,1.467935 -0.08051,3.36923 1.487765,3.929476 1.302712,0.465377 2.741376,-0.09031 3.410128,-1.317232 1.004605,-1.843091 -0.339055,-4.083472 -2.448947,-4.083472 z m -9.166365,0.0021 c -1.539113,0 -2.772441,1.234925 -2.772441,2.775542 0,1.107244 0.591925,2.033051 1.606104,2.512508 1.827089,0.863755 3.944828,-0.48655 3.940328,-2.512508 -0.0034,-1.542482 -1.235681,-2.775542 -2.773991,-2.775542 z m -32.220256,1.220081 h 1.252637 1.253154 l 0.771529,0.77773 0.772046,0.777731 -0.772046,0.77773 -0.771529,0.77773 h -1.253154 -1.252637 v -1.55546 z m 8.382434,0 h 1.252637 1.253154 v 1.555461 1.55546 h -1.253154 -1.252637 l -0.772045,-0.77773 -0.77153,-0.77773 0.77153,-0.777731 z m 9.614401,0.574642 c -1.084719,-0.02502 -1.681477,0.0068 -1.912028,0.102319 -0.733972,0.304023 -0.761275,1.401532 -0.04289,1.722892 0.254782,0.113971 0.766331,0.147961 1.9389,0.127641 l 1.593184,-0.02791 0.268201,-0.311609 c 0.342298,-0.398344 0.342298,-0.867212 0,-1.265556 -0.266866,-0.310564 -0.274161,-0.311532 -1.845365,-0.347782 z m 6.225976,0 c -1.571205,0.03624 -1.578497,0.03722 -1.845365,0.347782 -0.439793,0.511804 -0.274437,1.279425 0.327628,1.522388 0.353457,0.142649 2.980207,0.130252 3.399793,-0.01602 0.780092,-0.271944 0.799933,-1.432904 0.02997,-1.751831 -0.230549,-0.09557 -0.82731,-0.127339 -1.912028,-0.102319 z m 17.146757,0.123507 c 0.09736,-7.06e-4 0.196993,0.0396 0.365353,0.119889 0.413186,0.197058 0.574872,0.603479 0.417545,1.050065 -0.05484,0.155674 -0.24947,0.343069 -0.434599,0.418579 -0.994572,0.405651 -1.653604,-0.970727 -0.700732,-1.463477 0.159862,-0.08266 0.255074,-0.124351 0.352433,-0.125056 z m -9.056811,0.04754 c 0.174516,0.01583 0.346767,0.08838 0.487825,0.229443 0.296147,0.296151 0.306964,0.856325 0.0217,1.130164 -0.576545,0.553465 -1.416967,0.22003 -1.416967,-0.56224 0,-0.441125 0.349091,-0.748596 0.733288,-0.794783 0.05763,-0.0069 0.115978,-0.0079 0.17415,-0.0026 z m -26.869161,2.204 0.778247,0.772046 0.77773,0.772045 v 1.252637 1.253154 H 58.912614 57.30186 v -1.197343 -1.197343 l 0.833024,-0.82734 z m 31.387748,0.443383 c -1.172553,-0.0066 -2.049635,0.527738 -2.562634,1.561662 -0.30639,0.617524 -0.290275,1.830034 0.03256,2.444295 0.270323,0.514357 0.901304,1.110088 1.41025,1.331702 0.188073,0.08189 0.666818,0.150074 1.064017,0.150895 1.632531,0.0043 2.769325,-1.121453 2.775025,-2.747119 0.0028,-0.812898 -0.161706,-1.268158 -0.667143,-1.843815 -0.563324,-0.641595 -1.13698,-0.89252 -2.052071,-0.89762 z m 0.01189,1.9358 c 0.226101,0.01314 0.446908,0.113214 0.591178,0.296622 0.373883,0.475312 0.262996,0.950132 -0.290422,1.244886 -0.343289,0.182838 -0.518748,0.16178 -0.853178,-0.101286 -0.36682,-0.288534 -0.401624,-0.883047 -0.0708,-1.21388 0.165416,-0.165419 0.397117,-0.239478 0.623218,-0.226342 z m -9.844878,2.15284 c -0.559381,2.21e-4 -1.121241,0.104465 -1.568896,0.312642 -0.876328,0.407523 -1.479994,0.995566 -1.90221,1.853117 -1.019869,2.071431 -0.128558,4.430682 2.005046,5.308203 v -5.17e-4 c 0.848121,0.348826 1.985656,0.359391 2.875793,0.02636 0.813566,-0.304395 1.707779,-1.136768 2.117184,-1.970422 0.265301,-0.540225 0.306441,-0.756513 0.306441,-1.624707 0,-0.907976 -0.0343,-1.071512 -0.365869,-1.74563 -0.418057,-0.849958 -1.007472,-1.41921 -1.912028,-1.847432 -0.43909,-0.207763 -0.996079,-0.311831 -1.555461,-0.311609 z m -11.777059,5.17e-4 c -0.559381,-2.22e-4 -1.11637,0.103223 -1.55546,0.311092 -0.904557,0.428221 -1.493972,0.99799 -1.912028,1.847949 -0.331567,0.674117 -0.365869,0.837136 -0.365869,1.745113 0,0.86399 0.04149,1.085706 0.300757,1.612821 0.405602,0.824621 1.227673,1.610198 2.041219,1.951303 v 5.16e-4 c 0.907254,0.380395 2.254833,0.347979 3.157946,-0.07545 0.778192,-0.364852 1.510339,-1.095994 1.878439,-1.876372 0.243793,-0.516843 0.287837,-0.76562 0.287837,-1.613338 0,-0.90686 -0.03405,-1.072251 -0.361735,-1.737878 -0.422212,-0.857634 -1.025816,-1.445563 -1.902209,-1.853117 -0.447656,-0.208284 -1.009515,-0.312421 -1.568897,-0.312642 z m 0.09767,1.967321 c 0.304234,0.0083 0.598997,0.06121 0.783415,0.15658 0.709309,0.366799 1.211599,1.360314 1.059883,2.096513 -0.118717,0.576077 -0.555839,1.14047 -1.080037,1.39423 -0.616398,0.298394 -1.122539,0.298192 -1.724959,0 -1.455975,-0.720696 -1.378782,-2.96625 0.121439,-3.534668 0.222493,-0.0843 0.536024,-0.120928 0.840259,-0.112655 z m 11.581722,0 c 0.304234,-0.0083 0.617766,0.02835 0.840259,0.112655 1.504908,0.570195 1.576847,2.828449 0.112654,3.537252 -0.264587,0.128085 -0.652618,0.233106 -0.862479,0.23306 -0.858274,-1.98e-4 -1.753417,-0.754895 -1.933732,-1.629874 -0.151716,-0.736199 0.350573,-1.729713 1.059883,-2.096513 0.184418,-0.09537 0.479181,-0.148306 0.783415,-0.15658 z" /></g></g></svg>
