<?xml version="1.0" encoding="UTF-8" standalone="no"?>
<!-- Created with Inkscape (http://www.inkscape.org/) -->

<svg
   width="150mm"
   height="150mm"
   viewBox="0 0 150 150"
   version="1.1"
   id="svg1"
   inkscape:version="1.4 (e7c3feb100, 2024-10-09)"
   sodipodi:docname="WeirdBouncePowerUp.svg"
   inkscape:export-filename="WeirdBouncePowerUp.png"
   inkscape:export-xdpi="96"
   inkscape:export-ydpi="96"
   xmlns:inkscape="http://www.inkscape.org/namespaces/inkscape"
   xmlns:sodipodi="http://sodipodi.sourceforge.net/DTD/sodipodi-0.dtd"
   xmlns:xlink="http://www.w3.org/1999/xlink"
   xmlns="http://www.w3.org/2000/svg"
   xmlns:svg="http://www.w3.org/2000/svg">
  <sodipodi:namedview
     id="namedview1"
     pagecolor="#000000"
     bordercolor="#ffffff"
     borderopacity="1"
     inkscape:showpageshadow="0"
     inkscape:pageopacity="0"
     inkscape:pagecheckerboard="0"
     inkscape:deskcolor="#3d3d3d"
     inkscape:document-units="mm"
     inkscape:zoom="1.4485269"
     inkscape:cx="179.4927"
     inkscape:cy="274.7619"
     inkscape:window-width="2048"
     inkscape:window-height="1211"
     inkscape:window-x="0"
     inkscape:window-y="0"
     inkscape:window-maximized="1"
     inkscape:current-layer="layer1" />
  <defs
     id="defs1">
    <linearGradient
       id="linearGradient37"
       inkscape:collect="always">
      <stop
         style="stop-color:#383b02;stop-opacity:0;"
         offset="0.80000001"
         id="stop38" />
      <stop
         style="stop-color:#f7ec40;stop-opacity:0;"
         offset="1"
         id="stop37" />
    </linearGradient>
    <filter
       inkscape:collect="always"
       style="color-interpolation-filters:sRGB"
       id="filter13"
       x="-0.43200001"
       y="-0.43200001"
       width="1.864"
       height="1.864">
      <feGaussianBlur
         inkscape:collect="always"
         stdDeviation="2.5503163"
         id="feGaussianBlur13" />
    </filter>
    <filter
       inkscape:collect="always"
       style="color-interpolation-filters:sRGB"
       id="filter14"
       x="-0.19103323"
       y="-0.19297661"
       width="1.3820665"
       height="1.3859532">
      <feGaussianBlur
         inkscape:collect="always"
         stdDeviation="3.0551934"
         id="feGaussianBlur14" />
    </filter>
    <filter
       inkscape:collect="always"
       style="color-interpolation-filters:sRGB"
       id="filter15"
       x="-0.19608141"
       y="-0.20217688"
       width="1.3968832"
       height="1.3988817">
      <feGaussianBlur
         inkscape:collect="always"
         stdDeviation="2.4093413"
         id="feGaussianBlur15" />
    </filter>
    <filter
       inkscape:collect="always"
       style="color-interpolation-filters:sRGB"
       id="filter16"
       x="-0.18704114"
       y="-0.19722894"
       width="1.3740823"
       height="1.3944579">
      <feGaussianBlur
         inkscape:collect="always"
         stdDeviation="1.4299075"
         id="feGaussianBlur16" />
    </filter>
    <clipPath
       clipPathUnits="userSpaceOnUse"
       id="clipPath16">
      <circle
         style="fill:#808080;fill-opacity:1;stroke-width:0.264583"
         id="circle17"
         cx="74.394936"
         cy="77.753044"
         r="20" />
    </clipPath>
    <clipPath
       clipPathUnits="userSpaceOnUse"
       id="clipPath17">
      <circle
         style="fill:#808080;fill-opacity:1;stroke-width:0.264583"
         id="circle18"
         cx="74.394936"
         cy="77.753044"
         r="20" />
    </clipPath>
    <clipPath
       clipPathUnits="userSpaceOnUse"
       id="clipPath18">
      <circle
         style="fill:#808080;fill-opacity:1;stroke-width:0.264583"
         id="circle19"
         cx="74.394936"
         cy="77.753044"
         r="20" />
    </clipPath>
    <clipPath
       clipPathUnits="userSpaceOnUse"
       id="clipPath19">
      <circle
         style="fill:#808080;fill-opacity:1;stroke-width:0.264583"
         id="circle20"
         cx="74.394936"
         cy="77.753044"
         r="20" />
    </clipPath>
    <clipPath
       clipPathUnits="userSpaceOnUse"
       id="clipPath20">
      <circle
         style="fill:#808080;fill-opacity:1;stroke-width:0.264583"
         id="circle21"
         cx="74.394936"
         cy="77.753044"
         r="20" />
    </clipPath>
    <clipPath
       clipPathUnits="userSpaceOnUse"
       id="clipPath21">
      <circle
         style="fill:#808080;fill-opacity:1;stroke-width:0.264583"
         id="circle22"
         cx="74.394936"
         cy="77.753044"
         r="20" />
    </clipPath>
    <clipPath
       clipPathUnits="userSpaceOnUse"
       id="clipPath22">
      <circle
         style="fill:#808080;fill-opacity:1;stroke-width:0.264583"
         id="circle23"
         cx="74.394936"
         cy="77.753044"
         r="20" />
    </clipPath>
    <clipPath
       clipPathUnits="userSpaceOnUse"
       id="clipPath23">
      <circle
         style="fill:#808080;fill-opacity:1;stroke-width:0.264583"
         id="circle24"
         cx="74.394936"
         cy="77.753044"
         r="20" />
    </clipPath>
    <clipPath
       clipPathUnits="userSpaceOnUse"
       id="clipPath24">
      <circle
         style="fill:#808080;fill-opacity:1;stroke-width:0.264583"
         id="circle25"
         cx="74.394936"
         cy="77.753044"
         r="20" />
    </clipPath>
    <clipPath
       clipPathUnits="userSpaceOnUse"
       id="clipPath25">
      <circle
         style="fill:#808080;fill-opacity:1;stroke-width:0.264583"
         id="circle26"
         cx="74.394936"
         cy="77.753044"
         r="20" />
    </clipPath>
    <filter
       inkscape:collect="always"
       style="color-interpolation-filters:sRGB"
       id="filter37"
       x="-0.0050625001"
       y="-0.0050625001"
       width="1.010125"
       height="1.010125">
      <feGaussianBlur
         inkscape:collect="always"
         stdDeviation="0.05"
         id="feGaussianBlur37" />
    </filter>
    <radialGradient
       inkscape:collect="always"
       xlink:href="#linearGradient37"
       id="radialGradient38"
       cx="75"
       cy="75"
       fx="75"
       fy="75"
       r="70"
       gradientUnits="userSpaceOnUse"
       spreadMethod="pad" />
  </defs>
  <g
     inkscape:label="Layer 1"
     inkscape:groupmode="layer"
     id="layer1">
    <circle
       id="path2"
       style="fill:#ffffff;stroke:#000000;stroke-width:0.264583"
       cx="65.353889"
       cy="56.05452"
       r="0.034407407"
       clip-path="url(#clipPath25)" />
    <path
       style="fill:#ffffff;stroke-width:0.264583"
       id="path3"
       d="m 67.489672,57.474852 c 1.298499,-0.02997 2.597508,-0.02209 3.896241,-0.0191 0.537234,0.0021 1.074457,0.0063 1.611681,0.01016 0,0 -3.174178,-2.306174 -3.174178,-2.306174 v 0 c -0.527888,0.0039 -1.05578,0.008 -1.583679,0.01016 -1.316268,0.003 -2.632781,0.01032 -3.948824,-0.0191 z"
       clip-path="url(#clipPath24)" />
    <circle
       style="fill:none;stroke-width:0.264583"
       id="path4"
       cx="75"
       cy="75"
       r="65"
       clip-path="url(#clipPath23)" />
    <g
       id="g38"
       transform="translate(6.9155917e-5,-3.9642954e-4)">
      <circle
         style="opacity:1;fill:url(#radialGradient38);fill-opacity:1;stroke:#aca93e;stroke-width:6;stroke-dasharray:0.6, 0.6;stroke-dashoffset:2.1;stroke-opacity:1"
         id="path1"
         cx="75"
         cy="75"
         r="70" />
    </g>
    <g
       id="g2"
       transform="translate(27.581181,22.101477)">
      <circle
         style="fill:#ffffff;fill-opacity:1;stroke-width:0.264583"
         id="path7"
         cx="74.394936"
         cy="77.753044"
         r="20"
         clip-path="url(#clipPath22)"
         transform="translate(0.60506439,-2.7530441)" />
      <ellipse
         style="fill:#ffffff;fill-opacity:1;stroke-width:0.126078"
         id="circle9"
         cx="74.394936"
         cy="77.753044"
         rx="9.9256849"
         ry="9.1507378"
         clip-path="url(#clipPath21)" />
      <circle
         style="mix-blend-mode:normal;fill:#808080;fill-opacity:1;stroke:#ffffff;stroke-width:0.165;stroke-dasharray:none;stroke-opacity:1;filter:url(#filter37)"
         id="circle10"
         cx="74.394936"
         cy="77.753044"
         r="20"
         clip-path="url(#clipPath20)"
         transform="translate(0.60506439,-2.7530441)" />
      <circle
         style="fill:#ffffff;fill-opacity:1;stroke-width:0.0937181;filter:url(#filter13)"
         id="circle11"
         cx="83.694305"
         cy="70.003571"
         r="7.0842118"
         clip-path="url(#clipPath19)"
         transform="translate(0.54797048,-2.7398524)" />
      <g
         id="g1">
        <path
           id="path11"
           style="fill:#666666;fill-opacity:1;stroke-width:0.264583;filter:url(#filter14)"
           d="M 65.726737,59.756559 C 58.808893,63.08362 54.405698,70.076563 54.395129,77.752877 54.394947,88.798627 63.349192,97.753103 74.394942,97.753206 82.415315,97.739423 89.651737,92.935687 92.778316,85.549817 78.878115,82.295589 68.635597,75.360078 65.726737,59.756559 Z"
           sodipodi:nodetypes="ccccc"
           clip-path="url(#clipPath18)"
           transform="translate(0.54797048,-3.1051661)" />
      </g>
      <path
         id="path12"
         style="fill:#4d4d4d;fill-opacity:1;stroke:#ffffff;stroke-width:0.264583;stroke-opacity:1;filter:url(#filter15)"
         d="m 57.163436,67.684241 c -1.798108,3.051849 -2.75344,6.526496 -2.768307,10.068636 -1.82e-4,11.04575 8.954063,20.000226 19.999813,20.000329 3.579654,-0.01373 7.090017,-0.987958 10.164754,-2.821016 C 70.963252,88.081719 61.804949,79.012177 57.163436,67.684241 Z"
         sodipodi:nodetypes="ccccc"
         clip-path="url(#clipPath17)"
         transform="translate(1.095941,-3.1637396)" />
      <path
         id="path13"
         style="fill:#333333;fill-opacity:1;stroke-width:0.264583;filter:url(#filter16)"
         d="M 54.573413,80.247815 C 55.781789,89.6687 63.449451,96.940292 72.92113,97.647786 66.040504,93.759597 59.415268,89.232931 54.573413,80.247815 Z"
         sodipodi:nodetypes="ccc"
         clip-path="url(#clipPath16)"
         transform="translate(0.18265683,-2.9225092)" />
    </g>
    <path
       style="opacity:1;fill:#7f7f7f;stroke:#ffffff;stroke-width:0.265;stroke-dasharray:none;fill-opacity:1;stroke-opacity:1;stroke-dashoffset:0"
       id="path5"
       d="m 112.92673,77.23506 c 1.01732,-1.98491 1.76037,-4.090821 2.35246,-6.238272 0.19447,-0.705313 0.35808,-1.418773 0.53712,-2.128158 0.28177,-1.367747 0.67523,-3.099096 0.81247,-4.490423 0.26526,-2.689069 0.15085,-5.459188 -0.13786,-8.140719 -0.0938,-0.871537 -0.24336,-1.736174 -0.36504,-2.604262 -0.1753,-0.802507 -0.29463,-1.619318 -0.52589,-2.407525 -0.67902,-2.314321 -1.82736,-4.555064 -3.46612,-6.340676 -1.47385,-1.605913 -1.96834,-1.728732 -3.81595,-2.857707 -1.78629,-0.83331 -3.46793,-1.943552 -5.35887,-2.499936 -1.52578,-0.448937 -6.125999,0.24071 -7.389675,0.495734 -3.058983,0.617339 -6.698369,1.793941 -9.58119,2.915533 -1.744091,0.678556 -3.438707,1.477994 -5.15806,2.216992 -1.945031,1.064357 -3.918656,2.078053 -5.835094,3.193073 -4.23622,2.464718 -8.236924,5.081559 -12.241278,7.907089 -3.694584,2.60695 -7.885973,5.787591 -11.362434,8.69111 -1.797182,1.500992 -3.523226,3.085163 -5.284837,4.627745 -4.184029,3.729408 -8.259588,7.579643 -12.213024,11.552544 -1.77323,1.781961 -2.907877,2.954779 -4.534681,4.775811 -0.472008,0.528363 -0.925269,1.073179 -1.387903,1.609768 -0.464177,0.742039 -1.669009,1.697921 -1.716545,2.686523 -0.0082,0.169863 -0.0013,0.395774 0.139826,0.490643 3.52297,2.368058 2.447,2.422139 4.50404,2.009752 0.749046,-0.333283 1.215742,-0.488596 1.880743,-1.039908 1.064151,-0.882221 2.111264,-2.138 2.935679,-3.210848 1.437817,-1.871097 2.170636,-3.08981 3.475566,-5.09573 0.606079,-1.033523 1.244317,-2.048849 1.818238,-3.10057 0.683797,-1.253077 1.31377,-2.534883 1.953408,-3.811064 2.610536,-5.208455 5.013286,-10.510541 7.359521,-15.841911 2.040929,-4.944514 4.101999,-9.885203 5.91462,-14.919319 0.949547,-3.105026 0.924001,-3.132373 -3.529743,-4.748694 -0.392097,-0.142296 -0.816774,0.180681 -1.209196,0.322077 -0.561197,0.202213 -1.096232,0.470747 -1.644348,0.70612 -1.705428,0.900795 -2.595171,1.321755 -4.245978,2.412074 -0.848397,0.560345 -1.663848,1.169226 -2.485348,1.768314 -2.38724,1.740926 -4.706723,3.55999 -6.998255,5.423797 -1.422715,1.178795 -2.827803,2.38158 -4.177292,3.644214 -0.321435,0.300747 -0.889614,0.814189 -1.172499,1.224331 -0.04985,0.07228 -0.06569,0.162853 -0.09854,0.244279 1.266902,0.543441 2.45205,1.34485 3.800708,1.630323 0.305271,0.06462 0.426434,-0.455901 0.629875,-0.6925 0.311486,-0.362251 0.615109,-0.731292 0.914514,-1.10359 0.38219,-0.475234 0.778695,-0.940366 1.130101,-1.438796 0.922044,-1.30782 2.156124,-3.385643 2.968162,-4.715857 2.177622,-3.747039 4.446665,-7.459887 6.295517,-11.386259 0.233238,-0.495321 0.440124,-1.002625 0.660186,-1.503939 0.444079,-1.287645 1.317829,-2.948572 0.651147,-4.313976 -0.151198,-0.309663 -0.336507,-0.632073 -0.621027,-0.826497 -1.347536,-0.920811 -2.813746,-1.654635 -4.220617,-2.481953 -0.47116,-0.08904 -0.934342,-0.248491 -1.413481,-0.267105 -1.262692,-0.04905 -3.224977,0.29686 -4.408292,0.545674 -1.371375,0.288356 -3.575349,0.888304 -4.916215,1.314453 -0.748363,0.237839 -1.483212,0.516271 -2.224817,0.774406 -0.690603,0.308904 -1.381207,0.617807 -2.071812,0.926711 0,0 2.907371,1.930842 2.907371,1.930842 v 0 c 0.680072,-0.304549 1.360143,-0.609097 2.040215,-0.913646 0.727282,-0.259982 1.446723,-0.543036 2.181847,-0.779941 1.432729,-0.461725 3.428849,-0.998244 4.905409,-1.267754 1.419315,-0.259059 3.051564,-0.47529 4.508188,-0.304266 0.479573,0.05631 0.930926,0.256945 1.396389,0.385419 -0.72008,-0.44491 -1.384215,-0.996728 -2.160241,-1.334733 -0.293272,-0.127738 0.494816,0.419082 0.670994,0.686075 0.163608,0.247947 0.285014,0.534596 0.328385,0.828471 0.04619,0.312992 -0.01847,0.634088 -0.06638,0.946817 -0.129858,0.847437 -0.39488,1.559182 -0.653979,2.378403 -0.195455,0.508429 -0.377179,1.022348 -0.586364,1.525281 -1.66298,3.99824 -3.851436,7.758864 -6.076135,11.463136 -0.541681,0.829384 -1.058415,1.675606 -1.625044,2.48815 -0.918933,1.317746 -1.686428,2.281697 -2.744063,3.436413 -0.321738,0.351274 -0.654013,0.69341 -0.999402,1.021456 -0.219782,0.208743 -0.894909,0.359966 -0.694317,0.587208 0.830326,0.940644 2.065869,1.424498 3.098802,2.136746 -0.308983,0.07849 -0.338182,0.130514 0.09848,-0.434999 0.213847,-0.276947 0.461261,-0.526449 0.700664,-0.781624 0.654103,-0.697193 1.596361,-1.633699 2.269906,-2.265825 0.543348,-0.50994 1.101796,-1.003546 1.652696,-1.505318 0.67234,-0.57504 1.332912,-1.164132 2.017022,-1.725126 3.634311,-2.980258 7.482408,-5.798902 11.815598,-7.674819 0.571143,-0.192495 1.127326,-0.436962 1.713423,-0.577482 0.390628,-0.09365 1.428755,0.20873 1.199023,-0.12079 -0.597196,-0.856597 -1.70062,-1.212228 -2.55093,-1.818341 0.05791,0.176416 0.162319,0.343924 0.17372,0.529251 0.02974,0.483584 -0.255357,1.54885 -0.343834,1.939841 -1.473441,5.164846 -3.373281,10.198504 -5.401254,15.168461 -3.243477,7.774564 -6.670638,15.519437 -11.250184,22.617745 -1.351304,1.968452 -2.094706,3.162088 -3.610885,4.964128 -1.159407,1.378 -2.474889,2.788579 -4.155649,3.533939 -0.269338,0.119441 -0.561647,0.178292 -0.84247,0.267438 -1.745978,-0.04026 -0.938597,-0.133262 2.195647,1.803361 0.111517,0.06891 -0.264533,-0.125437 -0.302935,-0.250772 -0.138943,-0.453486 0.352719,-1.186657 0.515925,-1.45755 0.256378,-0.425546 0.54738,-0.829247 0.82107,-1.243867 0.412451,-0.561745 0.810946,-1.134005 1.237354,-1.68523 1.364659,-1.764114 2.672979,-3.298578 4.176365,-4.971586 3.713628,-4.132609 7.635645,-8.074756 11.744921,-11.814757 1.758407,-1.540436 3.485541,-3.117313 5.275217,-4.621303 3.521257,-2.959163 7.530849,-6.06901 11.288048,-8.715102 3.941207,-2.775686 8.127823,-5.477965 12.35524,-7.802073 1.971392,-1.083813 4.016777,-2.027224 6.025166,-3.040838 1.738122,-0.718105 3.450875,-1.500984 5.214368,-2.154314 3.036202,-1.124836 6.54585,-2.180402 9.756915,-2.719665 1.374622,-0.230854 2.767568,-0.383651 4.161118,-0.413465 1.14696,-0.02453 2.30933,0.484643 3.43251,0.251019 0.3328,-0.06922 -0.37882,-0.564531 -0.56823,-0.846794 1.85322,1.066384 2.36239,1.183486 3.85621,2.735781 1.669,1.734322 2.83808,3.924829 3.54823,6.210879 0.24387,0.785043 0.38044,1.599473 0.57066,2.399208 0.13179,0.864735 0.29432,1.725339 0.39537,2.594202 0.19236,1.653985 0.30977,3.771667 0.26788,5.436806 -0.0599,2.380586 -0.45275,4.722239 -0.99896,7.03507 -0.18828,0.697386 -0.35715,1.400299 -0.56483,2.092156 -0.62616,2.085948 -1.45605,4.13616 -2.63543,5.973614 z" />
    <path
       sodipodi:type="spiral"
       style="fill:none;fill-rule:evenodd;stroke:#6e6e6e;stroke-width:0.865;stroke-dasharray:none;stroke-opacity:1"
       id="path27"
       sodipodi:cx="51.57354"
       sodipodi:cy="30.369089"
       sodipodi:expansion="1"
       sodipodi:revolution="3"
       sodipodi:radius="17.611395"
       sodipodi:argument="-17.778921"
       sodipodi:t0="0.10830315"
       d="m 49.667,30.425332 c -0.751033,-1.425219 0.440639,-3.007744 1.807021,-3.429761 2.259392,-0.69783 4.455516,1.064976 4.940015,3.230723 0.686511,3.068759 -1.690389,5.921655 -4.654425,6.450269 -3.872215,0.690582 -7.39556,-2.315651 -7.960524,-6.078127 -0.701775,-4.673596 2.940713,-8.873513 7.50183,-9.470777 5.47406,-0.716812 10.35385,3.565633 10.981031,8.925531 0.73415,6.274054 -4.190461,11.835712 -10.349233,12.491286 -7.073779,0.752971 -13.318608,-4.815227 -14.00154,-11.772936 -0.772805,-7.873338 5.43995,-14.802237 13.196638,-15.511794 8.672788,-0.793359 16.286404,6.064644 17.022047,14.62034 0.547578,6.368453 -2.71435,12.59882 -8.130471,15.943092"
       transform="translate(67.450607,62.778586)" />
    <path
       sodipodi:type="spiral"
       style="fill:none;fill-rule:evenodd;stroke:#6e6e6e;stroke-width:0.865;stroke-dasharray:none;stroke-opacity:1"
       id="path27-4"
       sodipodi:cx="51.57354"
       sodipodi:cy="30.369089"
       sodipodi:expansion="1"
       sodipodi:revolution="3"
       sodipodi:radius="17.611395"
       sodipodi:argument="-17.778921"
       sodipodi:t0="0.10830315"
       d="m 49.667,30.425332 c -0.751033,-1.425219 0.440639,-3.007744 1.807021,-3.429761 2.259392,-0.69783 4.455516,1.064976 4.940015,3.230723 0.686511,3.068759 -1.690389,5.921655 -4.654425,6.450269 -3.872215,0.690582 -7.39556,-2.315651 -7.960524,-6.078127 -0.701775,-4.673596 2.940713,-8.873513 7.50183,-9.470777 5.47406,-0.716812 10.35385,3.565633 10.981031,8.925531 0.73415,6.274054 -4.190461,11.835712 -10.349233,12.491286 -7.073779,0.752971 -13.318608,-4.815227 -14.00154,-11.772936 -0.772805,-7.873338 5.43995,-14.802237 13.196638,-15.511794 8.672788,-0.793359 16.286404,6.064644 17.022047,14.62034 0.547578,6.368453 -2.71435,12.59882 -8.130471,15.943092"
       transform="translate(30.160186,45.264869)" />
    <path
       sodipodi:type="spiral"
       style="fill:none;fill-rule:evenodd;stroke:#6e6e6e;stroke-width:0.865;stroke-dasharray:none;stroke-opacity:1"
       id="path27-8"
       sodipodi:cx="51.57354"
       sodipodi:cy="30.369089"
       sodipodi:expansion="1"
       sodipodi:revolution="3"
       sodipodi:radius="17.611395"
       sodipodi:argument="-17.778921"
       sodipodi:t0="0.10830315"
       d="m 49.667,30.425332 c -0.751033,-1.425219 0.440639,-3.007744 1.807021,-3.429761 2.259392,-0.69783 4.455516,1.064976 4.940015,3.230723 0.686511,3.068759 -1.690389,5.921655 -4.654425,6.450269 -3.872215,0.690582 -7.39556,-2.315651 -7.960524,-6.078127 -0.701775,-4.673596 2.940713,-8.873513 7.50183,-9.470777 5.47406,-0.716812 10.35385,3.565633 10.981031,8.925531 0.73415,6.274054 -4.190461,11.835712 -10.349233,12.491286 -7.073779,0.752971 -13.318608,-4.815227 -14.00154,-11.772936 -0.772805,-7.873338 5.43995,-14.802237 13.196638,-15.511794 8.672788,-0.793359 16.286404,6.064644 17.022047,14.62034 0.547578,6.368453 -2.71435,12.59882 -8.130471,15.943092"
       transform="translate(25.795226,83.595958)" />
  </g>
</svg>
